<mxfile host="app.diagrams.net" modified="2021-11-15T15:39:36.249Z" agent="5.0 (Macintosh; Intel Mac OS X 10_15_7) AppleWebKit/537.36 (KHTML, like Gecko) Chrome/95.0.4638.69 Safari/537.36" etag="rZ9S-EflRMFC1ZJ3SWYM" version="15.7.4" type="github">
  <diagram id="iDCw3S6Oj8J64TXPu2wW" name="Page-1">
    <mxGraphModel dx="2384" dy="982" grid="1" gridSize="10" guides="1" tooltips="1" connect="1" arrows="1" fold="1" page="1" pageScale="1" pageWidth="827" pageHeight="1169" math="0" shadow="0">
      <root>
        <mxCell id="0" />
        <mxCell id="1" parent="0" />
        <mxCell id="Q_5FF8ftQKXzvZQFvhfC-125" value="容器" style="rounded=0;whiteSpace=wrap;html=1;shadow=0;fontSize=14;strokeColor=#191919;fillColor=#D5E8D4;" vertex="1" parent="1">
          <mxGeometry x="495" y="65" width="150" height="40" as="geometry" />
        </mxCell>
        <mxCell id="Q_5FF8ftQKXzvZQFvhfC-16" value="" style="rounded=0;whiteSpace=wrap;html=1;shadow=0;fontSize=14;strokeColor=#191919;fillColor=#FFFFFF;" vertex="1" parent="1">
          <mxGeometry x="-30" y="32.5" width="1684" height="677.5" as="geometry" />
        </mxCell>
        <mxCell id="Q_5FF8ftQKXzvZQFvhfC-4" value="&lt;font style=&quot;font-size: 14px&quot;&gt;Docker&amp;nbsp; Host&lt;/font&gt;" style="rounded=1;whiteSpace=wrap;html=1;fillColor=#9AC7BF;" vertex="1" parent="1">
          <mxGeometry x="10" y="10" width="120" height="40" as="geometry" />
        </mxCell>
        <mxCell id="Q_5FF8ftQKXzvZQFvhfC-105" style="edgeStyle=orthogonalEdgeStyle;curved=1;rounded=0;orthogonalLoop=1;jettySize=auto;html=1;exitX=1;exitY=0.5;exitDx=0;exitDy=0;fontSize=14;startArrow=none;" edge="1" parent="1" source="Q_5FF8ftQKXzvZQFvhfC-88">
          <mxGeometry relative="1" as="geometry">
            <mxPoint x="1380" y="370" as="targetPoint" />
            <Array as="points">
              <mxPoint x="790" y="410" />
              <mxPoint x="1380" y="410" />
            </Array>
          </mxGeometry>
        </mxCell>
        <mxCell id="Q_5FF8ftQKXzvZQFvhfC-6" value="" style="rounded=0;whiteSpace=wrap;html=1;strokeColor=#191919;" vertex="1" parent="1">
          <mxGeometry x="400" y="300" width="390" height="155" as="geometry" />
        </mxCell>
        <mxCell id="Q_5FF8ftQKXzvZQFvhfC-96" style="edgeStyle=orthogonalEdgeStyle;curved=1;rounded=0;orthogonalLoop=1;jettySize=auto;html=1;exitX=1;exitY=0.25;exitDx=0;exitDy=0;entryX=0;entryY=0.5;entryDx=0;entryDy=0;fontSize=14;" edge="1" parent="1" source="Q_5FF8ftQKXzvZQFvhfC-7" target="Q_5FF8ftQKXzvZQFvhfC-95">
          <mxGeometry relative="1" as="geometry" />
        </mxCell>
        <mxCell id="Q_5FF8ftQKXzvZQFvhfC-7" value="&lt;font style=&quot;font-size: 14px&quot;&gt;容器&lt;/font&gt;" style="rounded=1;whiteSpace=wrap;html=1;fillColor=#D5E8D4;" vertex="1" parent="1">
          <mxGeometry x="400" y="277.5" width="120" height="40" as="geometry" />
        </mxCell>
        <mxCell id="Q_5FF8ftQKXzvZQFvhfC-18" style="edgeStyle=orthogonalEdgeStyle;rounded=0;orthogonalLoop=1;jettySize=auto;html=1;exitX=0;exitY=0.5;exitDx=0;exitDy=0;entryX=0.5;entryY=0;entryDx=0;entryDy=0;fontSize=14;" edge="1" parent="1" source="Q_5FF8ftQKXzvZQFvhfC-8" target="Q_5FF8ftQKXzvZQFvhfC-10">
          <mxGeometry relative="1" as="geometry" />
        </mxCell>
        <mxCell id="Q_5FF8ftQKXzvZQFvhfC-19" style="edgeStyle=orthogonalEdgeStyle;rounded=0;orthogonalLoop=1;jettySize=auto;html=1;exitX=1;exitY=0.5;exitDx=0;exitDy=0;entryX=0.5;entryY=0;entryDx=0;entryDy=0;fontSize=14;" edge="1" parent="1" source="Q_5FF8ftQKXzvZQFvhfC-8" target="Q_5FF8ftQKXzvZQFvhfC-9">
          <mxGeometry relative="1" as="geometry" />
        </mxCell>
        <mxCell id="Q_5FF8ftQKXzvZQFvhfC-8" value="应用" style="rounded=1;whiteSpace=wrap;html=1;fontSize=14;fillColor=#CCCCFF;" vertex="1" parent="1">
          <mxGeometry x="525" y="357.5" width="120" height="40" as="geometry" />
        </mxCell>
        <mxCell id="Q_5FF8ftQKXzvZQFvhfC-31" style="edgeStyle=orthogonalEdgeStyle;rounded=0;orthogonalLoop=1;jettySize=auto;html=1;exitX=0.5;exitY=1;exitDx=0;exitDy=0;entryX=0.5;entryY=0;entryDx=0;entryDy=0;fontSize=14;" edge="1" parent="1" source="Q_5FF8ftQKXzvZQFvhfC-9" target="Q_5FF8ftQKXzvZQFvhfC-30">
          <mxGeometry relative="1" as="geometry" />
        </mxCell>
        <mxCell id="Q_5FF8ftQKXzvZQFvhfC-9" value="数据" style="rounded=1;whiteSpace=wrap;html=1;fontSize=14;fillColor=#FFCCCC;" vertex="1" parent="1">
          <mxGeometry x="670" y="415" width="120" height="40" as="geometry" />
        </mxCell>
        <mxCell id="Q_5FF8ftQKXzvZQFvhfC-27" style="edgeStyle=orthogonalEdgeStyle;rounded=0;orthogonalLoop=1;jettySize=auto;html=1;exitX=0.5;exitY=1;exitDx=0;exitDy=0;entryX=0.5;entryY=0;entryDx=0;entryDy=0;fontSize=14;" edge="1" parent="1" source="Q_5FF8ftQKXzvZQFvhfC-10" target="Q_5FF8ftQKXzvZQFvhfC-22">
          <mxGeometry relative="1" as="geometry">
            <Array as="points">
              <mxPoint x="460" y="630" />
              <mxPoint x="210" y="630" />
            </Array>
          </mxGeometry>
        </mxCell>
        <mxCell id="Q_5FF8ftQKXzvZQFvhfC-10" value="端口88" style="rounded=1;whiteSpace=wrap;html=1;fontSize=14;fillColor=#FFCCCC;" vertex="1" parent="1">
          <mxGeometry x="400" y="415" width="120" height="40" as="geometry" />
        </mxCell>
        <mxCell id="Q_5FF8ftQKXzvZQFvhfC-20" style="edgeStyle=orthogonalEdgeStyle;rounded=0;orthogonalLoop=1;jettySize=auto;html=1;exitX=0.75;exitY=1;exitDx=0;exitDy=0;entryX=0.75;entryY=0;entryDx=0;entryDy=0;fontSize=14;" edge="1" parent="1" source="Q_5FF8ftQKXzvZQFvhfC-13" target="Q_5FF8ftQKXzvZQFvhfC-9">
          <mxGeometry relative="1" as="geometry" />
        </mxCell>
        <mxCell id="Q_5FF8ftQKXzvZQFvhfC-13" value="/data" style="rounded=1;whiteSpace=wrap;html=1;fontSize=14;strokeColor=#191919;fillColor=#99FF99;" vertex="1" parent="1">
          <mxGeometry x="670.5" y="310" width="119" height="37.5" as="geometry" />
        </mxCell>
        <mxCell id="Q_5FF8ftQKXzvZQFvhfC-21" value="端口3306" style="rounded=1;whiteSpace=wrap;html=1;fontSize=14;fillColor=#FFCCCC;" vertex="1" parent="1">
          <mxGeometry x="10" y="690" width="120" height="40" as="geometry" />
        </mxCell>
        <mxCell id="Q_5FF8ftQKXzvZQFvhfC-22" value="端口80" style="rounded=1;whiteSpace=wrap;html=1;fontSize=14;fillColor=#FFCCCC;" vertex="1" parent="1">
          <mxGeometry x="150" y="690" width="120" height="40" as="geometry" />
        </mxCell>
        <mxCell id="Q_5FF8ftQKXzvZQFvhfC-23" value="端口8848" style="rounded=1;whiteSpace=wrap;html=1;fontSize=14;fillColor=#FFCCCC;" vertex="1" parent="1">
          <mxGeometry x="296.5" y="690" width="120" height="40" as="geometry" />
        </mxCell>
        <mxCell id="Q_5FF8ftQKXzvZQFvhfC-34" style="edgeStyle=orthogonalEdgeStyle;rounded=0;orthogonalLoop=1;jettySize=auto;html=1;exitX=1;exitY=0.5;exitDx=0;exitDy=0;entryX=0.5;entryY=1;entryDx=0;entryDy=0;fontSize=14;" edge="1" parent="1" source="Q_5FF8ftQKXzvZQFvhfC-24" target="Q_5FF8ftQKXzvZQFvhfC-22">
          <mxGeometry relative="1" as="geometry" />
        </mxCell>
        <mxCell id="Q_5FF8ftQKXzvZQFvhfC-24" value="Brower" style="rounded=0;whiteSpace=wrap;html=1;shadow=0;fontSize=14;strokeColor=#191919;fillColor=#FF3333;" vertex="1" parent="1">
          <mxGeometry x="10" y="820" width="120" height="60" as="geometry" />
        </mxCell>
        <mxCell id="Q_5FF8ftQKXzvZQFvhfC-26" value="http://xxx:80" style="rounded=1;whiteSpace=wrap;html=1;shadow=0;fontSize=14;strokeColor=#191919;fillColor=#FF3333;" vertex="1" parent="1">
          <mxGeometry x="150" y="770" width="130" height="30" as="geometry" />
        </mxCell>
        <mxCell id="Q_5FF8ftQKXzvZQFvhfC-28" value="docker run -p 80:88" style="rounded=1;whiteSpace=wrap;html=1;shadow=0;fontSize=14;strokeColor=#191919;fillColor=#E6FFCC;" vertex="1" parent="1">
          <mxGeometry x="230" y="610" width="203.5" height="35" as="geometry" />
        </mxCell>
        <mxCell id="Q_5FF8ftQKXzvZQFvhfC-30" value="/hello" style="rounded=0;whiteSpace=wrap;html=1;shadow=0;fontSize=14;strokeColor=#191919;fillColor=#E6FFCC;" vertex="1" parent="1">
          <mxGeometry x="655" y="585" width="150" height="35" as="geometry" />
        </mxCell>
        <mxCell id="Q_5FF8ftQKXzvZQFvhfC-32" value="docker run -v /hello:/data" style="rounded=1;whiteSpace=wrap;html=1;shadow=0;fontSize=14;strokeColor=#191919;fillColor=#E6FFCC;" vertex="1" parent="1">
          <mxGeometry x="601.5" y="500" width="203.5" height="35" as="geometry" />
        </mxCell>
        <mxCell id="Q_5FF8ftQKXzvZQFvhfC-85" style="edgeStyle=orthogonalEdgeStyle;curved=1;rounded=0;orthogonalLoop=1;jettySize=auto;html=1;exitX=0.5;exitY=0;exitDx=0;exitDy=0;entryX=0.5;entryY=1;entryDx=0;entryDy=0;fontSize=14;" edge="1" parent="1" source="Q_5FF8ftQKXzvZQFvhfC-35" target="Q_5FF8ftQKXzvZQFvhfC-84">
          <mxGeometry relative="1" as="geometry" />
        </mxCell>
        <mxCell id="Q_5FF8ftQKXzvZQFvhfC-90" style="edgeStyle=orthogonalEdgeStyle;rounded=0;orthogonalLoop=1;jettySize=auto;html=1;exitX=0;exitY=0;exitDx=0;exitDy=0;entryX=1;entryY=0.25;entryDx=0;entryDy=0;fontSize=14;curved=1;" edge="1" parent="1" source="Q_5FF8ftQKXzvZQFvhfC-35" target="Q_5FF8ftQKXzvZQFvhfC-43">
          <mxGeometry relative="1" as="geometry">
            <Array as="points">
              <mxPoint x="1380" y="150" />
              <mxPoint x="1230" y="150" />
              <mxPoint x="1230" y="100" />
            </Array>
          </mxGeometry>
        </mxCell>
        <mxCell id="Q_5FF8ftQKXzvZQFvhfC-100" style="edgeStyle=orthogonalEdgeStyle;curved=1;rounded=0;orthogonalLoop=1;jettySize=auto;html=1;exitX=0;exitY=0.5;exitDx=0;exitDy=0;entryX=1;entryY=0.5;entryDx=0;entryDy=0;fontSize=14;startArrow=none;" edge="1" parent="1" source="Q_5FF8ftQKXzvZQFvhfC-101" target="Q_5FF8ftQKXzvZQFvhfC-95">
          <mxGeometry relative="1" as="geometry">
            <Array as="points">
              <mxPoint x="880" y="180" />
            </Array>
          </mxGeometry>
        </mxCell>
        <mxCell id="Q_5FF8ftQKXzvZQFvhfC-35" value="镜像" style="rounded=0;whiteSpace=wrap;html=1;shadow=0;fontSize=14;strokeColor=#191919;fillColor=#66B2FF;" vertex="1" parent="1">
          <mxGeometry x="1380" y="340" width="160" height="70" as="geometry" />
        </mxCell>
        <mxCell id="Q_5FF8ftQKXzvZQFvhfC-38" style="edgeStyle=orthogonalEdgeStyle;rounded=0;orthogonalLoop=1;jettySize=auto;html=1;exitX=0.5;exitY=0;exitDx=0;exitDy=0;entryX=0.5;entryY=1;entryDx=0;entryDy=0;fontSize=14;" edge="1" parent="1" source="Q_5FF8ftQKXzvZQFvhfC-37" target="Q_5FF8ftQKXzvZQFvhfC-35">
          <mxGeometry relative="1" as="geometry" />
        </mxCell>
        <mxCell id="Q_5FF8ftQKXzvZQFvhfC-37" value="镜像仓库" style="rounded=0;whiteSpace=wrap;html=1;shadow=0;fontSize=14;strokeColor=#191919;fillColor=#FF3333;" vertex="1" parent="1">
          <mxGeometry x="1400" y="820" width="120" height="60" as="geometry" />
        </mxCell>
        <mxCell id="Q_5FF8ftQKXzvZQFvhfC-39" value="docker&amp;nbsp; pull&amp;nbsp; [镜像名]" style="rounded=0;whiteSpace=wrap;html=1;shadow=0;fontSize=14;strokeColor=#191919;fillColor=#E6FFCC;" vertex="1" parent="1">
          <mxGeometry x="1370" y="565" width="170" height="40" as="geometry" />
        </mxCell>
        <mxCell id="Q_5FF8ftQKXzvZQFvhfC-42" value="容器" style="rounded=0;whiteSpace=wrap;html=1;shadow=0;fontSize=14;strokeColor=#191919;fillColor=#FF3333;" vertex="1" parent="1">
          <mxGeometry x="495" y="55" width="150" height="40" as="geometry" />
        </mxCell>
        <mxCell id="Q_5FF8ftQKXzvZQFvhfC-68" style="edgeStyle=orthogonalEdgeStyle;rounded=0;orthogonalLoop=1;jettySize=auto;html=1;exitX=0.5;exitY=1;exitDx=0;exitDy=0;entryX=0.5;entryY=0;entryDx=0;entryDy=0;fontSize=14;" edge="1" parent="1" source="Q_5FF8ftQKXzvZQFvhfC-43" target="Q_5FF8ftQKXzvZQFvhfC-7">
          <mxGeometry relative="1" as="geometry" />
        </mxCell>
        <mxCell id="Q_5FF8ftQKXzvZQFvhfC-43" value="容器" style="rounded=0;whiteSpace=wrap;html=1;shadow=0;fontSize=14;strokeColor=#191919;fillColor=#D5E8D4;" vertex="1" parent="1">
          <mxGeometry x="505" y="65" width="150" height="40" as="geometry" />
        </mxCell>
        <mxCell id="Q_5FF8ftQKXzvZQFvhfC-74" style="edgeStyle=orthogonalEdgeStyle;curved=1;rounded=0;orthogonalLoop=1;jettySize=auto;html=1;exitX=1;exitY=0.5;exitDx=0;exitDy=0;entryX=0.5;entryY=0;entryDx=0;entryDy=0;fontSize=14;" edge="1" parent="1" source="Q_5FF8ftQKXzvZQFvhfC-44" target="Q_5FF8ftQKXzvZQFvhfC-61">
          <mxGeometry relative="1" as="geometry" />
        </mxCell>
        <mxCell id="Q_5FF8ftQKXzvZQFvhfC-75" style="edgeStyle=orthogonalEdgeStyle;curved=1;rounded=0;orthogonalLoop=1;jettySize=auto;html=1;exitX=0;exitY=0.5;exitDx=0;exitDy=0;entryX=0.374;entryY=-0.033;entryDx=0;entryDy=0;entryPerimeter=0;fontSize=14;" edge="1" parent="1" source="Q_5FF8ftQKXzvZQFvhfC-44" target="Q_5FF8ftQKXzvZQFvhfC-54">
          <mxGeometry relative="1" as="geometry" />
        </mxCell>
        <mxCell id="Q_5FF8ftQKXzvZQFvhfC-77" style="edgeStyle=orthogonalEdgeStyle;curved=1;rounded=0;orthogonalLoop=1;jettySize=auto;html=1;exitX=1;exitY=0.5;exitDx=0;exitDy=0;entryX=0;entryY=0.75;entryDx=0;entryDy=0;fontSize=14;" edge="1" parent="1" source="Q_5FF8ftQKXzvZQFvhfC-44" target="Q_5FF8ftQKXzvZQFvhfC-63">
          <mxGeometry relative="1" as="geometry" />
        </mxCell>
        <mxCell id="Q_5FF8ftQKXzvZQFvhfC-44" value="run" style="ellipse;whiteSpace=wrap;html=1;shadow=0;fontSize=14;strokeColor=#191919;fillColor=#00CC66;" vertex="1" parent="1">
          <mxGeometry x="50" y="240" width="110" height="60" as="geometry" />
        </mxCell>
        <mxCell id="Q_5FF8ftQKXzvZQFvhfC-70" style="edgeStyle=orthogonalEdgeStyle;curved=1;rounded=0;orthogonalLoop=1;jettySize=auto;html=1;exitX=0.5;exitY=1;exitDx=0;exitDy=0;entryX=0.5;entryY=0;entryDx=0;entryDy=0;fontSize=14;" edge="1" parent="1" source="Q_5FF8ftQKXzvZQFvhfC-45" target="Q_5FF8ftQKXzvZQFvhfC-44">
          <mxGeometry relative="1" as="geometry" />
        </mxCell>
        <mxCell id="Q_5FF8ftQKXzvZQFvhfC-45" value="&amp;nbsp;docker&amp;nbsp; ps" style="rounded=1;whiteSpace=wrap;html=1;shadow=0;fontSize=14;strokeColor=#191919;fillColor=#E6FFCC;" vertex="1" parent="1">
          <mxGeometry x="30" y="100" width="120" height="30" as="geometry" />
        </mxCell>
        <mxCell id="Q_5FF8ftQKXzvZQFvhfC-49" style="edgeStyle=orthogonalEdgeStyle;rounded=0;orthogonalLoop=1;jettySize=auto;html=1;exitX=1;exitY=0.5;exitDx=0;exitDy=0;entryX=0;entryY=0.5;entryDx=0;entryDy=0;fontSize=14;" edge="1" parent="1" source="Q_5FF8ftQKXzvZQFvhfC-47" target="Q_5FF8ftQKXzvZQFvhfC-43">
          <mxGeometry relative="1" as="geometry" />
        </mxCell>
        <mxCell id="Q_5FF8ftQKXzvZQFvhfC-47" value="&amp;nbsp;docker&amp;nbsp; ps&amp;nbsp; -a" style="rounded=1;whiteSpace=wrap;html=1;shadow=0;fontSize=14;strokeColor=#191919;fillColor=#E6FFCC;" vertex="1" parent="1">
          <mxGeometry x="160" y="70" width="120" height="30" as="geometry" />
        </mxCell>
        <mxCell id="Q_5FF8ftQKXzvZQFvhfC-55" style="edgeStyle=orthogonalEdgeStyle;rounded=0;orthogonalLoop=1;jettySize=auto;html=1;exitX=1;exitY=0.5;exitDx=0;exitDy=0;entryX=0;entryY=0.5;entryDx=0;entryDy=0;fontSize=14;" edge="1" parent="1" source="Q_5FF8ftQKXzvZQFvhfC-50" target="Q_5FF8ftQKXzvZQFvhfC-51">
          <mxGeometry relative="1" as="geometry" />
        </mxCell>
        <mxCell id="Q_5FF8ftQKXzvZQFvhfC-50" value="stop" style="ellipse;whiteSpace=wrap;html=1;shadow=0;fontSize=14;strokeColor=#191919;fillColor=#CC0000;" vertex="1" parent="1">
          <mxGeometry y="405" width="110" height="60" as="geometry" />
        </mxCell>
        <mxCell id="Q_5FF8ftQKXzvZQFvhfC-51" value="remove" style="ellipse;whiteSpace=wrap;html=1;shadow=0;fontSize=14;strokeColor=#191919;fillColor=#E6E6E6;" vertex="1" parent="1">
          <mxGeometry x="205" y="405" width="110" height="60" as="geometry" />
        </mxCell>
        <mxCell id="Q_5FF8ftQKXzvZQFvhfC-76" style="edgeStyle=orthogonalEdgeStyle;curved=1;rounded=0;orthogonalLoop=1;jettySize=auto;html=1;exitX=0.25;exitY=1;exitDx=0;exitDy=0;fontSize=14;" edge="1" parent="1" source="Q_5FF8ftQKXzvZQFvhfC-54" target="Q_5FF8ftQKXzvZQFvhfC-50">
          <mxGeometry relative="1" as="geometry" />
        </mxCell>
        <mxCell id="Q_5FF8ftQKXzvZQFvhfC-54" value="docker&amp;nbsp; stop" style="rounded=1;whiteSpace=wrap;html=1;shadow=0;fontSize=14;strokeColor=#191919;fillColor=#E6FFCC;" vertex="1" parent="1">
          <mxGeometry y="340" width="135" height="30" as="geometry" />
        </mxCell>
        <mxCell id="Q_5FF8ftQKXzvZQFvhfC-56" value="docker rm" style="rounded=1;whiteSpace=wrap;html=1;shadow=0;fontSize=14;strokeColor=#191919;fillColor=#E6FFCC;direction=south;" vertex="1" parent="1">
          <mxGeometry x="130" y="410" width="55" height="60" as="geometry" />
        </mxCell>
        <mxCell id="Q_5FF8ftQKXzvZQFvhfC-78" style="edgeStyle=orthogonalEdgeStyle;curved=1;rounded=0;orthogonalLoop=1;jettySize=auto;html=1;exitX=0;exitY=0.5;exitDx=0;exitDy=0;entryX=0;entryY=0.5;entryDx=0;entryDy=0;fontSize=14;" edge="1" parent="1" source="Q_5FF8ftQKXzvZQFvhfC-63" target="Q_5FF8ftQKXzvZQFvhfC-65">
          <mxGeometry relative="1" as="geometry" />
        </mxCell>
        <mxCell id="Q_5FF8ftQKXzvZQFvhfC-63" value="docker&amp;nbsp; logs" style="rounded=1;whiteSpace=wrap;html=1;shadow=0;fontSize=14;strokeColor=#191919;fillColor=#E6FFCC;" vertex="1" parent="1">
          <mxGeometry x="205" y="220" width="110" height="30" as="geometry" />
        </mxCell>
        <mxCell id="Q_5FF8ftQKXzvZQFvhfC-65" value="日志" style="ellipse;whiteSpace=wrap;html=1;shadow=0;fontSize=14;strokeColor=#191919;fillColor=#FFFF33;" vertex="1" parent="1">
          <mxGeometry x="230" y="160" width="107.5" height="50" as="geometry" />
        </mxCell>
        <mxCell id="Q_5FF8ftQKXzvZQFvhfC-69" value="docker exec -it" style="rounded=1;whiteSpace=wrap;html=1;shadow=0;fontSize=14;strokeColor=#191919;fillColor=#E6FFCC;" vertex="1" parent="1">
          <mxGeometry x="440" y="170" width="150" height="30" as="geometry" />
        </mxCell>
        <mxCell id="Q_5FF8ftQKXzvZQFvhfC-73" style="edgeStyle=orthogonalEdgeStyle;curved=1;rounded=0;orthogonalLoop=1;jettySize=auto;html=1;exitX=0.5;exitY=1;exitDx=0;exitDy=0;fontSize=14;" edge="1" parent="1" source="Q_5FF8ftQKXzvZQFvhfC-61" target="Q_5FF8ftQKXzvZQFvhfC-51">
          <mxGeometry relative="1" as="geometry" />
        </mxCell>
        <mxCell id="Q_5FF8ftQKXzvZQFvhfC-61" value="docker&amp;nbsp; rm&amp;nbsp; -f" style="rounded=1;whiteSpace=wrap;html=1;shadow=0;fontSize=14;strokeColor=#191919;fillColor=#E6FFCC;" vertex="1" parent="1">
          <mxGeometry x="160" y="340" width="125" height="30" as="geometry" />
        </mxCell>
        <mxCell id="Q_5FF8ftQKXzvZQFvhfC-79" value="镜像" style="rounded=0;whiteSpace=wrap;html=1;shadow=0;fontSize=14;strokeColor=#191919;fillColor=#66B2FF;" vertex="1" parent="1">
          <mxGeometry x="1350" y="40" width="160" height="70" as="geometry" />
        </mxCell>
        <mxCell id="Q_5FF8ftQKXzvZQFvhfC-80" value="镜像" style="rounded=0;whiteSpace=wrap;html=1;shadow=0;fontSize=14;strokeColor=#191919;fillColor=#66B2FF;" vertex="1" parent="1">
          <mxGeometry x="1360" y="50" width="160" height="70" as="geometry" />
        </mxCell>
        <mxCell id="Q_5FF8ftQKXzvZQFvhfC-81" value="镜像" style="rounded=0;whiteSpace=wrap;html=1;shadow=0;fontSize=14;strokeColor=#191919;fillColor=#66B2FF;" vertex="1" parent="1">
          <mxGeometry x="1375" y="60" width="160" height="70" as="geometry" />
        </mxCell>
        <mxCell id="Q_5FF8ftQKXzvZQFvhfC-83" style="edgeStyle=orthogonalEdgeStyle;curved=1;rounded=0;orthogonalLoop=1;jettySize=auto;html=1;exitX=1;exitY=0.5;exitDx=0;exitDy=0;entryX=0;entryY=0.75;entryDx=0;entryDy=0;fontSize=14;" edge="1" parent="1" source="Q_5FF8ftQKXzvZQFvhfC-82" target="Q_5FF8ftQKXzvZQFvhfC-79">
          <mxGeometry relative="1" as="geometry" />
        </mxCell>
        <mxCell id="Q_5FF8ftQKXzvZQFvhfC-82" value="docker images" style="rounded=0;whiteSpace=wrap;html=1;shadow=0;fontSize=14;strokeColor=#191919;fillColor=#E6FFCC;" vertex="1" parent="1">
          <mxGeometry x="1150" y="60" width="170" height="40" as="geometry" />
        </mxCell>
        <mxCell id="Q_5FF8ftQKXzvZQFvhfC-84" value="remove" style="ellipse;whiteSpace=wrap;html=1;shadow=0;fontSize=14;strokeColor=#191919;fillColor=#E6E6E6;" vertex="1" parent="1">
          <mxGeometry x="1400" y="170" width="110" height="60" as="geometry" />
        </mxCell>
        <mxCell id="Q_5FF8ftQKXzvZQFvhfC-86" value="docker rmi" style="rounded=0;whiteSpace=wrap;html=1;shadow=0;fontSize=14;strokeColor=#191919;fillColor=#E6FFCC;" vertex="1" parent="1">
          <mxGeometry x="1390" y="260" width="170" height="40" as="geometry" />
        </mxCell>
        <mxCell id="Q_5FF8ftQKXzvZQFvhfC-91" value="docker run" style="rounded=0;whiteSpace=wrap;html=1;shadow=0;fontSize=14;strokeColor=#191919;fillColor=#E6FFCC;direction=west;" vertex="1" parent="1">
          <mxGeometry x="940" y="90" width="170" height="40" as="geometry" />
        </mxCell>
        <mxCell id="Q_5FF8ftQKXzvZQFvhfC-102" style="edgeStyle=orthogonalEdgeStyle;curved=1;rounded=0;orthogonalLoop=1;jettySize=auto;html=1;exitX=1;exitY=1;exitDx=0;exitDy=0;fontSize=14;" edge="1" parent="1" source="Q_5FF8ftQKXzvZQFvhfC-95">
          <mxGeometry relative="1" as="geometry">
            <mxPoint x="1380" y="370" as="targetPoint" />
            <Array as="points">
              <mxPoint x="1380" y="242" />
            </Array>
          </mxGeometry>
        </mxCell>
        <mxCell id="Q_5FF8ftQKXzvZQFvhfC-124" style="edgeStyle=orthogonalEdgeStyle;curved=1;rounded=0;orthogonalLoop=1;jettySize=auto;html=1;exitX=1;exitY=1;exitDx=0;exitDy=0;fontSize=14;fontColor=#FFFFFF;" edge="1" parent="1" source="Q_5FF8ftQKXzvZQFvhfC-95">
          <mxGeometry relative="1" as="geometry">
            <mxPoint x="1380" y="370" as="targetPoint" />
            <Array as="points">
              <mxPoint x="864" y="243" />
              <mxPoint x="864" y="340" />
              <mxPoint x="1380" y="340" />
            </Array>
          </mxGeometry>
        </mxCell>
        <mxCell id="Q_5FF8ftQKXzvZQFvhfC-95" value="压缩包" style="ellipse;whiteSpace=wrap;html=1;shadow=0;fontSize=14;strokeColor=#191919;fillColor=#7F00FF;" vertex="1" parent="1">
          <mxGeometry x="805" y="200" width="110" height="50" as="geometry" />
        </mxCell>
        <mxCell id="Q_5FF8ftQKXzvZQFvhfC-97" value="docker export" style="rounded=1;whiteSpace=wrap;html=1;shadow=0;fontSize=14;strokeColor=#191919;fillColor=#E6FFCC;" vertex="1" parent="1">
          <mxGeometry x="590" y="240" width="110" height="35" as="geometry" />
        </mxCell>
        <mxCell id="Q_5FF8ftQKXzvZQFvhfC-101" value="docker save" style="rounded=0;whiteSpace=wrap;html=1;shadow=0;fontSize=14;strokeColor=#191919;fillColor=#E6FFCC;" vertex="1" parent="1">
          <mxGeometry x="970" y="160" width="170" height="40" as="geometry" />
        </mxCell>
        <mxCell id="Q_5FF8ftQKXzvZQFvhfC-103" value="" style="edgeStyle=orthogonalEdgeStyle;curved=1;rounded=0;orthogonalLoop=1;jettySize=auto;html=1;exitX=0;exitY=0.5;exitDx=0;exitDy=0;entryX=1;entryY=0.5;entryDx=0;entryDy=0;fontSize=14;endArrow=none;" edge="1" parent="1" source="Q_5FF8ftQKXzvZQFvhfC-35" target="Q_5FF8ftQKXzvZQFvhfC-101">
          <mxGeometry relative="1" as="geometry">
            <mxPoint x="1380" y="375" as="sourcePoint" />
            <mxPoint x="880" y="225" as="targetPoint" />
            <Array as="points">
              <mxPoint x="1380" y="180" />
            </Array>
          </mxGeometry>
        </mxCell>
        <mxCell id="Q_5FF8ftQKXzvZQFvhfC-104" value="docker&amp;nbsp; load" style="rounded=0;whiteSpace=wrap;html=1;shadow=0;fontSize=14;strokeColor=#191919;fillColor=#E6FFCC;" vertex="1" parent="1">
          <mxGeometry x="970" y="230" width="170" height="40" as="geometry" />
        </mxCell>
        <mxCell id="Q_5FF8ftQKXzvZQFvhfC-88" value="docker&amp;nbsp; commit" style="rounded=0;whiteSpace=wrap;html=1;shadow=0;fontSize=14;strokeColor=#191919;fillColor=#E6FFCC;" vertex="1" parent="1">
          <mxGeometry x="970" y="390" width="170" height="40" as="geometry" />
        </mxCell>
        <mxCell id="Q_5FF8ftQKXzvZQFvhfC-106" value="" style="edgeStyle=orthogonalEdgeStyle;curved=1;rounded=0;orthogonalLoop=1;jettySize=auto;html=1;exitX=1;exitY=0.5;exitDx=0;exitDy=0;fontSize=14;endArrow=none;" edge="1" parent="1" source="Q_5FF8ftQKXzvZQFvhfC-6" target="Q_5FF8ftQKXzvZQFvhfC-88">
          <mxGeometry relative="1" as="geometry">
            <mxPoint x="1380" y="370" as="targetPoint" />
            <mxPoint x="790" y="377.5" as="sourcePoint" />
            <Array as="points" />
          </mxGeometry>
        </mxCell>
        <mxCell id="Q_5FF8ftQKXzvZQFvhfC-113" style="edgeStyle=orthogonalEdgeStyle;curved=1;rounded=0;orthogonalLoop=1;jettySize=auto;html=1;exitX=1;exitY=0.5;exitDx=0;exitDy=0;exitPerimeter=0;entryX=0.5;entryY=1;entryDx=0;entryDy=0;fontSize=14;fontColor=#FFFFFF;" edge="1" parent="1" source="Q_5FF8ftQKXzvZQFvhfC-108" target="Q_5FF8ftQKXzvZQFvhfC-35">
          <mxGeometry relative="1" as="geometry" />
        </mxCell>
        <mxCell id="Q_5FF8ftQKXzvZQFvhfC-108" value="&lt;u&gt;&lt;font color=&quot;#ffffff&quot;&gt;dockerfile&lt;/font&gt;&lt;/u&gt;" style="shape=card;whiteSpace=wrap;html=1;shadow=0;fontSize=14;strokeColor=#191919;fillColor=#000033;" vertex="1" parent="1">
          <mxGeometry x="1170" y="490" width="80" height="100" as="geometry" />
        </mxCell>
        <mxCell id="Q_5FF8ftQKXzvZQFvhfC-110" value="docker build" style="rounded=0;whiteSpace=wrap;html=1;shadow=0;fontSize=14;strokeColor=#191919;fillColor=#E6FFCC;" vertex="1" parent="1">
          <mxGeometry x="1270" y="497.5" width="170" height="40" as="geometry" />
        </mxCell>
        <mxCell id="Q_5FF8ftQKXzvZQFvhfC-112" style="edgeStyle=orthogonalEdgeStyle;curved=1;rounded=0;orthogonalLoop=1;jettySize=auto;html=1;exitX=0.5;exitY=1;exitDx=0;exitDy=0;fontSize=14;fontColor=#FFFFFF;" edge="1" parent="1" source="Q_5FF8ftQKXzvZQFvhfC-110" target="Q_5FF8ftQKXzvZQFvhfC-110">
          <mxGeometry relative="1" as="geometry" />
        </mxCell>
        <mxCell id="Q_5FF8ftQKXzvZQFvhfC-116" style="edgeStyle=orthogonalEdgeStyle;curved=1;rounded=0;orthogonalLoop=1;jettySize=auto;html=1;exitX=1;exitY=0.75;exitDx=0;exitDy=0;fontSize=14;fontColor=#FFFFFF;" edge="1" parent="1" source="Q_5FF8ftQKXzvZQFvhfC-115" target="Q_5FF8ftQKXzvZQFvhfC-37">
          <mxGeometry relative="1" as="geometry" />
        </mxCell>
        <mxCell id="Q_5FF8ftQKXzvZQFvhfC-121" style="edgeStyle=orthogonalEdgeStyle;curved=1;rounded=0;orthogonalLoop=1;jettySize=auto;html=1;exitX=0.5;exitY=1;exitDx=0;exitDy=0;entryX=0;entryY=0.75;entryDx=0;entryDy=0;fontSize=14;fontColor=#FFFFFF;" edge="1" parent="1" source="Q_5FF8ftQKXzvZQFvhfC-115" target="Q_5FF8ftQKXzvZQFvhfC-37">
          <mxGeometry relative="1" as="geometry" />
        </mxCell>
        <mxCell id="Q_5FF8ftQKXzvZQFvhfC-115" value="docker cli" style="rounded=0;whiteSpace=wrap;html=1;shadow=0;fontSize=14;strokeColor=#191919;fillColor=#E6FFCC;" vertex="1" parent="1">
          <mxGeometry x="990" y="650" width="170" height="40" as="geometry" />
        </mxCell>
        <mxCell id="Q_5FF8ftQKXzvZQFvhfC-117" value="docker push" style="rounded=0;whiteSpace=wrap;html=1;shadow=0;fontSize=14;strokeColor=#191919;fillColor=#E6FFCC;" vertex="1" parent="1">
          <mxGeometry x="1241" y="682.5" width="170" height="40" as="geometry" />
        </mxCell>
        <mxCell id="Q_5FF8ftQKXzvZQFvhfC-119" value="docker login/logout" style="rounded=0;whiteSpace=wrap;html=1;shadow=0;fontSize=14;strokeColor=#191919;fillColor=#E6FFCC;" vertex="1" parent="1">
          <mxGeometry x="1110" y="780" width="145" height="40" as="geometry" />
        </mxCell>
        <mxCell id="Q_5FF8ftQKXzvZQFvhfC-99" value="docker&amp;nbsp; import" style="rounded=0;whiteSpace=wrap;html=1;shadow=0;fontSize=14;strokeColor=#191919;fillColor=#E6FFCC;" vertex="1" parent="1">
          <mxGeometry x="970" y="317.5" width="170" height="40" as="geometry" />
        </mxCell>
      </root>
    </mxGraphModel>
  </diagram>
</mxfile>
